<mxfile host="app.diagrams.net" modified="2023-07-05T04:58:29.720Z" agent="Mozilla/5.0 (Windows NT 10.0; Win64; x64) AppleWebKit/537.36 (KHTML, like Gecko) Chrome/114.0.0.0 Safari/537.36" version="21.5.2" etag="jikYFRBLX9IDkCqXCSY5" type="github">
  <diagram name="Page-1" id="OJwL5yAntxwjqjEjAToI">
    <mxGraphModel>
      <root>
        <mxCell id="0" />
        <mxCell id="1" parent="0" />
      </root>
    </mxGraphModel>
  </diagram>
</mxfile>
